<svg xmlns="http://www.w3.org/2000/svg" width="1920" height="1080" viewBox="0 0 1920 1080" data-vf-scene="harbor-dusk" data-vf-frame="0">
<defs>
<linearGradient id="vf-grad-0" x1="0" y1="0" x2="0" y2="1"><stop offset="0" stop-color="#142b35"/><stop offset="1" stop-color="#e89a6a"/></linearGradient>
<linearGradient id="vf-grad-1" x1="0" y1="0" x2="0" y2="1"><stop offset="0" stop-color="#2b5560"/><stop offset="1" stop-color="#173741"/></linearGradient>
</defs>
<rect x="0" y="0" width="1920" height="1080" fill="#142b35"/>
<polygon points="-33.480,-718.713 57.901,-654.681 143.828,-598.737 225.123,-549.895 302.479,-507.348 376.484,-470.435 447.647,-438.613 516.413,-411.436 583.174,-388.539 648.281,-369.625 712.054,-354.458 774.788,-342.853 836.757,-334.671 898.222,-329.815 959.437,-328.230 1020.650,-329.895 1082.110,-334.830 1144.068,-343.093 1206.786,-354.779 1270.540,-370.028 1335.622,-389.026 1402.354,-412.010 1471.084,-439.276 1542.206,-471.191 1616.163,-508.200 1693.463,-550.847 1774.695,-599.794 1860.550,-655.849 1951.848,-720.000 2504.142,978.278 2333.253,978.157 2180.488,978.062 2042.209,977.988 1915.618,977.931 1798.524,977.889 1689.172,977.861 1586.135,977.844 1488.228,977.838 1394.449,977.843 1303.934,977.857 1215.921,977.880 1129.725,977.911 1044.713,977.952 960.284,978.002 875.855,978.062 790.842,978.131 704.646,978.211 616.634,978.302 526.119,978.406 432.340,978.523 334.433,978.655 231.396,978.806 122.044,978.976 4.950,979.169 -121.640,979.390 -259.919,979.644 -412.683,979.937 -583.573,980.279" fill="url(#vf-grad-0)"/>
<polygon points="194.063,591.926 179.604,603.281 143.475,609.443 91.556,609.094 33.120,601.976 -20.220,589.171 -56.754,573.145 -67.847,557.338 -50.785,545.275 -9.752,539.550 45.679,541.151 103.597,549.393 152.777,562.351 184.636,577.440" fill="#e8c9a8"/>
<polygon points="196.696,685.464 177.229,711.589 131.936,730.409 67.881,738.129 -3.607,732.530 -68.087,713.878 -110.927,685.533 -121.617,653.601 -97.536,625.355 -44.908,607.007 23.681,601.992 93.503,610.493 151.362,630.065 187.603,656.650" fill="#e8c9a8"/>
<polygon points="2004.388,589.438 1998.225,614.106 1970.811,636.338 1928.479,651.462 1880.474,656.644 1836.468,651.305 1804.570,636.886 1790.198,616.294 1795.652,593.304 1820.031,572.034 1859.291,556.430 1906.497,549.690 1952.577,553.565 1987.864,567.715" fill="#e8c9a8"/>
<polygon points="1604.590,482.895 1596.406,507.613 1567.817,529.759 1525.171,544.793 1477.482,549.895 1434.218,544.396 1403.437,529.645 1390.583,508.564 1397.874,485.072 1424.098,463.497 1464.686,447.951 1512.175,441.638 1557.245,446.141 1590.481,460.858" fill="#e8c9a8"/>
<polygon points="602.300,391.169 588.660,400.720 552.827,404.994 500.991,403.078 442.625,395.134 389.216,382.520 352.083,367.693 339.595,353.758 354.711,343.732 393.995,339.738 448.659,342.477 507.099,351.169 557.776,363.892 591.425,378.107" fill="#e8c9a8"/>
<polygon points="439.992,612.254 422.867,632.664 380.334,646.464 319.306,650.867 250.701,644.537 188.198,628.176 145.554,604.810 132.858,579.390 153.186,557.571 201.523,544.084 266.586,541.477 334.425,549.734 391.938,566.706 429.115,588.904" fill="#e8c9a8"/>
<polygon points="1100.169,559.400 1090.731,579.133 1063.850,595.132 1024.900,604.220 981.642,604.611 942.654,596.251 915.624,580.813 905.854,561.351 915.248,541.699 941.956,525.728 980.736,516.593 1023.955,516.116 1063.064,524.416 1090.283,539.864" fill="#e8c9a8"/>
<polygon points="-774.764,599.674 -765.941,607.327 -748.425,622.522 -722.473,645.034 -688.458,674.542 -651.834,694.403 -612.890,704.835 -571.926,706.146 -529.248,698.728 -489.905,697.630 -453.575,702.576 -419.980,713.360 -388.881,729.837 -355.884,737.447 -321.222,736.446 -285.130,727.161 -247.845,709.986 -212.244,695.382 -178.186,683.210 -145.545,673.347 -114.205,665.686 -85.138,664.627 -58.131,669.957 -33.001,681.533 -9.588,699.275 13.856,715.418 37.321,729.982 60.797,742.989 84.273,754.461 108.847,758.416 134.388,755.002 160.762,744.426 187.832,726.948 213.315,715.755 237.369,710.614 260.135,711.353 281.739,717.857 303.213,723.621 324.562,728.655 345.789,732.971 366.897,736.582 387.530,742.229 407.735,749.898 427.553,759.581 447.026,771.277 466.598,781.092 486.255,789.034 505.984,795.115 525.770,799.347 545.786,799.528 565.986,795.705 586.326,787.942 606.761,776.319 626.715,768.077 646.247,763.142 665.416,761.460 684.273,762.996 703.100,763.446 721.891,762.820 740.644,761.124 759.355,758.369 777.846,758.685 796.165,762.056 814.359,768.483 832.474,777.982 850.727,782.743 869.069,782.757 887.454,778.036 905.834,768.618 924.114,759.141 942.305,749.600 960.415,739.992 978.453,730.312 996.472,727.155 1014.559,730.497 1032.804,740.378 1051.296,756.901 1069.851,769.508 1088.429,778.126 1106.992,782.700 1125.498,783.192 1143.913,780.052 1162.202,773.274 1180.331,762.867 1198.267,748.853 1216.607,742.469 1235.453,743.703 1254.917,752.625 1275.117,769.398 1295.205,781.253 1315.121,788.070 1334.805,789.757 1354.198,786.250 1373.685,782.529 1393.275,778.590 1412.976,774.430 1432.797,770.045 1453.151,769.254 1474.104,772.104 1495.728,778.662 1518.101,789.022 1539.529,789.480 1559.867,779.868 1578.978,760.136 1596.740,730.360 1615.552,707.901 1635.519,692.667 1656.761,684.642 1679.413,683.889 1703.433,689.472 1728.971,701.580 1756.200,720.473 1785.316,746.491 1812.448,758.422 1837.278,755.694 1859.519,737.991 1878.928,705.268 1900.766,683.653 1925.242,673.114 1952.613,673.799 1983.193,686.049 2013.952,696.052 2044.861,703.710 2075.887,708.928 2106.995,711.611 2137.193,708.109 2166.340,698.237 2194.298,681.849 2220.931,658.844 2251.440,647.468 2286.211,647.978 2325.724,660.854 2370.574,686.829 2405.386,706.991 2429.178,720.770 2441.255,727.765 2523.785,978.363 2513.449,978.355 2492.993,978.339 2462.836,978.317 2423.580,978.288 2385.376,978.260 2348.163,978.234 2311.885,978.209 2276.488,978.186 2241.947,978.163 2208.213,978.142 2175.242,978.122 2142.991,978.103 2111.442,978.085 2080.556,978.068 2050.298,978.052 2020.632,978.037 1991.547,978.023 1963.011,978.009 1934.993,977.997 1907.466,977.985 1880.422,977.974 1853.834,977.964 1827.677,977.955 1801.926,977.946 1776.579,977.938 1751.610,977.930 1727.001,977.924 1702.730,977.918 1678.794,977.912 1655.174,977.907 1631.852,977.903 1608.811,977.900 1586.048,977.896 1563.548,977.894 1541.295,977.892 1519.272,977.891 1497.480,977.890 1475.904,977.889 1454.530,977.890 1433.343,977.890 1412.346,977.891 1391.524,977.893 1370.865,977.895 1350.356,977.898 1329.999,977.901 1309.782,977.905 1289.693,977.909 1269.719,977.913 1249.864,977.918 1230.117,977.924 1210.465,977.930 1190.898,977.936 1171.420,977.943 1152.018,977.951 1132.683,977.959 1113.405,977.967 1094.185,977.976 1075.015,977.985 1055.883,977.995 1036.779,978.005 1017.708,978.015 998.659,978.026 979.621,978.038 960.585,978.050 941.554,978.063 922.518,978.076 903.467,978.089 884.392,978.103 865.294,978.118 846.166,978.133 826.995,978.149 807.772,978.165 788.500,978.181 769.169,978.199 749.768,978.216 730.287,978.235 710.728,978.254 691.081,978.273 671.335,978.293 651.478,978.314 631.514,978.335 611.430,978.357 591.215,978.380 570.857,978.403 550.359,978.427 529.707,978.451 508.888,978.477 487.891,978.503 466.717,978.529 445.351,978.557 423.780,978.585 401.989,978.614 379.979,978.644 357.735,978.675 335.241,978.707 312.481,978.739 289.455,978.773 266.144,978.807 242.532,978.842 218.600,978.879 194.346,978.916 169.750,978.955 144.792,978.995 119.449,979.035 93.719,979.077 67.577,979.121 41.001,979.165 13.964,979.211 -13.540,979.259 -41.538,979.307 -70.060,979.358 -99.135,979.410 -128.774,979.463 -159.010,979.518 -189.878,979.575 -221.414,979.634 -253.634,979.695 -286.578,979.757 -320.290,979.822 -354.814,979.889 -390.174,979.959 -426.420,980.031 -463.605,980.105 -501.787,980.182 -540.999,980.262 -581.305,980.344 -622.774,980.430 -665.479,980.519 -709.469,980.612 -754.826,980.708 -801.641,980.808 -850.010,980.912 -887.352,980.993 -912.772,981.048 -925.644,981.076" fill="#b48a6d"/>
<polygon points="-749.630,536.138 -739.619,540.332 -719.790,548.637 -690.524,560.896 -652.365,576.879 -616.685,596.694 -583.277,620.277 -551.962,647.596 -522.579,678.642 -492.156,704.593 -460.796,725.512 -428.603,741.485 -395.683,752.619 -361.082,755.324 -325.029,749.891 -287.753,736.676 -249.483,716.084 -213.565,700.437 -179.777,689.461 -147.919,682.932 -117.816,680.665 -90.276,686.530 -65.066,700.341 -41.989,722.014 -20.876,751.557 2.887,767.673 29.062,770.461 57.378,760.230 87.542,737.487 115.330,723.746 140.991,718.621 164.738,721.846 186.754,733.263 209.015,741.731 231.488,747.289 254.138,749.979 276.932,749.852 299.633,748.268 322.231,745.259 344.720,740.855 367.092,735.087 388.286,736.232 408.428,744.185 427.631,758.912 445.997,780.446 465.143,794.607 484.983,801.372 505.425,800.782 526.374,792.939 546.820,788.023 566.818,785.979 586.422,786.765 605.682,790.353 624.894,793.132 644.059,795.109 663.177,796.290 682.249,796.682 701.580,790.614 721.095,778.183 740.720,759.531 760.381,734.842 779.259,722.953 797.529,723.589 815.357,736.698 832.899,762.449 850.873,776.488 869.149,778.642 887.594,768.914 906.073,747.477 924.270,737.816 942.338,739.762 960.425,753.335 978.681,778.751 997.091,798.130 1015.588,811.319 1034.106,818.208 1052.579,818.733 1070.958,814.211 1089.193,804.654 1107.235,790.103 1125.034,770.626 1142.897,755.266 1160.881,743.952 1179.043,736.640 1197.440,733.313 1216.234,735.976 1235.514,744.695 1255.374,759.591 1275.917,780.848 1296.387,797.204 1316.723,808.513 1336.863,814.654 1356.745,815.534 1376.003,807.918 1394.537,791.788 1412.253,767.212 1429.064,734.343 1446.676,709.876 1465.192,693.646 1484.729,685.584 1505.415,685.720 1526.963,690.908 1549.475,701.269 1573.064,716.970 1597.856,738.226 1621.407,747.797 1643.506,745.315 1663.961,730.580 1682.600,703.579 1703.623,690.614 1727.275,691.734 1753.857,707.280 1783.745,737.902 1813.051,761.619 1841.615,778.040 1869.275,786.821 1895.869,787.675 1922.283,785.410 1948.474,779.947 1974.393,771.217 1999.993,759.157 2025.821,746.305 2051.882,732.642 2078.186,718.150 2104.741,702.806 2132.903,691.797 2162.819,685.201 2194.652,683.128 2228.588,685.730 2261.927,683.329 2294.548,675.746 2326.333,662.828 2357.158,644.444 2380.666,630.425 2396.526,620.967 2404.514,616.203 2524.042,979.144 2513.704,979.134 2493.243,979.113 2463.079,979.083 2423.813,979.043 2385.600,979.006 2348.378,978.970 2312.092,978.936 2276.687,978.903 2242.138,978.873 2208.398,978.843 2175.419,978.815 2143.161,978.789 2111.606,978.763 2080.715,978.739 2050.450,978.717 2020.779,978.695 1991.689,978.674 1963.147,978.655 1935.125,978.637 1907.593,978.619 1880.544,978.603 1853.951,978.588 1827.790,978.573 1802.035,978.559 1776.683,978.547 1751.711,978.535 1727.098,978.524 1702.823,978.514 1678.884,978.504 1655.260,978.496 1631.935,978.488 1608.890,978.481 1586.125,978.474 1563.622,978.468 1541.365,978.463 1519.339,978.459 1497.544,978.455 1475.965,978.452 1454.588,978.450 1433.399,978.448 1412.399,978.447 1391.575,978.446 1370.913,978.446 1350.402,978.447 1330.042,978.448 1309.823,978.450 1289.731,978.452 1269.755,978.455 1249.898,978.459 1230.148,978.463 1210.494,978.468 1190.925,978.473 1171.444,978.479 1152.040,978.485 1132.703,978.492 1113.422,978.500 1094.200,978.508 1075.028,978.516 1055.894,978.525 1036.788,978.535 1017.715,978.546 998.663,978.556 979.623,978.568 960.585,978.580 941.552,978.593 922.514,978.606 903.461,978.619 884.384,978.634 865.284,978.649 846.153,978.664 826.980,978.681 807.755,978.697 788.481,978.715 769.148,978.733 749.745,978.752 730.261,978.771 710.700,978.791 691.051,978.812 671.302,978.833 651.443,978.856 631.476,978.879 611.390,978.902 591.173,978.927 570.813,978.952 550.311,978.978 529.657,979.004 508.836,979.032 487.836,979.060 466.659,979.089 445.290,979.120 423.716,979.151 401.922,979.183 379.910,979.215 357.663,979.249 335.166,979.284 312.402,979.320 289.373,979.357 266.059,979.395 242.443,979.434 218.508,979.475 194.250,979.517 169.650,979.559 144.688,979.604 119.341,979.649 93.607,979.696 67.461,979.744 40.880,979.794 13.839,979.846 -13.670,979.898 -41.674,979.953 -70.201,980.009 -99.281,980.068 -128.926,980.128 -159.168,980.190 -190.042,980.254 -221.584,980.320 -253.810,980.388 -286.762,980.459 -320.480,980.532 -355.012,980.607 -390.380,980.686 -426.634,980.767 -463.828,980.850 -502.019,980.937 -541.240,981.028 -581.556,981.121 -623.036,981.218 -665.752,981.319 -709.753,981.424 -755.123,981.533 -801.951,981.646 -850.334,981.764 -887.686,981.856 -913.114,981.918 -925.989,981.950" fill="#917865"/>
<polygon points="-810.802,690.773 -796.020,683.886 -766.960,670.348 -724.589,650.609 -670.259,625.298 -620.272,606.667 -574.160,594.243 -531.519,587.640 -492.003,586.547 -456.126,593.145 -423.542,607.182 -393.963,628.501 -367.143,657.032 -340.203,683.516 -313.162,707.979 -286.037,730.449 -258.845,750.958 -229.589,761.736 -198.488,762.990 -165.776,755.022 -131.692,738.220 -100.505,730.129 -71.924,730.388 -45.704,738.748 -21.634,755.067 4.468,760.140 32.378,754.208 61.856,737.646 92.652,710.950 119.800,699.843 143.697,703.708 164.664,722.266 182.949,755.544 202.480,781.213 223.164,799.197 244.899,809.489 267.573,812.152 290.720,809.623 314.265,802.016 338.131,789.473 362.246,772.157 385.153,761.092 406.985,756.080 427.856,756.981 447.874,763.710 467.636,771.442 487.168,780.176 506.497,789.914 525.646,800.662 545.320,804.709 565.439,802.101 585.920,792.937 606.681,777.361 626.565,770.143 645.701,771.117 664.210,780.218 682.201,797.478 700.417,811.394 718.827,821.940 737.401,829.097 756.107,832.861 775.088,828.456 794.253,815.972 813.508,795.571 832.761,767.491 851.461,751.293 869.766,746.678 887.829,753.542 905.796,771.964 923.936,783.555 942.178,788.223 960.448,785.935 978.672,776.711 996.856,771.272 1015.057,769.590 1033.327,771.663 1051.723,777.507 1070.150,781.571 1088.594,783.842 1107.045,784.310 1125.489,782.965 1144.044,783.272 1162.741,785.238 1181.609,788.878 1200.683,794.213 1219.802,798.156 1238.959,800.691 1258.148,801.804 1277.360,801.481 1296.165,794.203 1314.486,779.965 1332.248,758.823 1349.383,730.883 1367.673,716.695 1387.300,716.151 1408.469,729.408 1431.423,756.898 1454.167,778.566 1476.610,794.164 1498.662,803.483 1520.229,806.352 1541.987,808.756 1563.942,810.688 1586.102,812.140 1608.477,813.102 1631.170,814.330 1654.204,815.830 1677.602,817.607 1701.388,819.670 1725.085,819.111 1748.660,815.875 1772.084,809.911 1795.324,801.176 1819.131,793.875 1843.554,788.028 1868.642,783.654 1894.452,780.783 1920.093,775.049 1945.526,766.394 1970.714,754.762 1995.616,740.106 2022.185,730.912 2050.579,727.275 2080.976,729.340 2113.577,737.314 2145.062,738.029 2175.251,731.227 2203.966,716.710 2231.040,694.337 2259.484,674.977 2289.415,658.649 2320.958,645.394 2354.254,635.269 2379.729,627.523 2396.957,622.284 2405.646,619.642 2524.617,980.890 2514.273,980.873 2493.801,980.841 2463.620,980.792 2424.333,980.730 2386.099,980.670 2348.859,980.613 2312.554,980.558 2277.132,980.506 2242.566,980.456 2208.809,980.408 2175.816,980.363 2143.543,980.319 2111.974,980.278 2081.068,980.238 2050.791,980.200 2021.107,980.164 1992.005,980.129 1963.452,980.096 1935.418,980.065 1907.876,980.035 1880.817,980.006 1854.214,979.979 1828.042,979.954 1802.279,979.929 1776.918,979.906 1751.937,979.884 1727.315,979.864 1703.032,979.844 1679.084,979.826 1655.453,979.809 1632.120,979.792 1609.068,979.777 1586.295,979.763 1563.785,979.750 1541.521,979.738 1519.489,979.727 1497.687,979.717 1476.102,979.708 1454.719,979.700 1433.524,979.692 1412.518,979.686 1391.688,979.680 1371.020,979.676 1350.503,979.672 1330.138,979.669 1309.913,979.666 1289.815,979.665 1269.834,979.664 1249.972,979.665 1230.217,979.666 1210.557,979.668 1190.984,979.670 1171.498,979.674 1152.089,979.678 1132.747,979.683 1113.461,979.688 1094.235,979.695 1075.057,979.702 1055.918,979.710 1036.808,979.719 1017.730,979.729 998.673,979.739 979.629,979.750 960.586,979.762 941.548,979.775 922.506,979.788 903.448,979.803 884.365,979.818 865.261,979.834 846.125,979.850 826.948,979.868 807.718,979.886 788.439,979.906 769.101,979.926 749.692,979.947 730.204,979.968 710.638,979.991 690.984,980.015 671.230,980.039 651.366,980.065 631.393,980.091 611.302,980.119 591.079,980.147 570.713,980.177 550.206,980.207 529.546,980.238 508.719,980.271 487.714,980.305 466.530,980.339 445.155,980.375 423.575,980.412 401.774,980.451 379.755,980.490 357.501,980.531 334.997,980.573 312.227,980.617 289.189,980.662 265.868,980.708 242.245,980.756 218.301,980.805 194.035,980.856 169.427,980.909 144.455,980.963 119.100,981.019 93.356,981.076 67.201,981.136 40.610,981.197 13.558,981.261 -13.962,981.326 -41.976,981.394 -70.515,981.464 -99.607,981.536 -129.265,981.611 -159.519,981.688 -190.407,981.768 -221.963,981.850 -254.204,981.936 -287.171,982.024 -320.906,982.115 -355.454,982.210 -390.839,982.308 -427.112,982.409 -464.325,982.515 -502.536,982.624 -541.779,982.737 -582.117,982.855 -623.620,982.977 -666.361,983.104 -710.388,983.236 -755.785,983.374 -802.642,983.517 -851.056,983.666 -888.432,983.781 -913.877,983.860 -926.761,983.899" fill="#6b6257"/>
<polyline points="-229.589,761.736 -247.579,830.562" fill="none" stroke="#485353" stroke-width="1.6"/>
<polyline points="92.652,710.950 65.739,850.705" fill="none" stroke="#485353" stroke-width="1.6"/>
<polyline points="338.131,789.473 322.877,902.028" fill="none" stroke="#485353" stroke-width="1.6"/>
<polyline points="585.920,792.937 579.620,870.512" fill="none" stroke="#485353" stroke-width="1.6"/>
<polyline points="794.253,815.972 791.515,893.166" fill="none" stroke="#485353" stroke-width="1.6"/>
<polyline points="996.856,771.272 997.733,871.789" fill="none" stroke="#485353" stroke-width="1.6"/>
<polyline points="1219.802,798.156 1225.899,904.426" fill="none" stroke="#485353" stroke-width="1.6"/>
<polyline points="1431.423,756.898 1444.214,879.236" fill="none" stroke="#485353" stroke-width="1.6"/>
<polyline points="1677.602,817.607 1686.318,873.214" fill="none" stroke="#485353" stroke-width="1.6"/>
<polyline points="1970.714,754.762 1995.428,865.302" fill="none" stroke="#485353" stroke-width="1.6"/>
<polygon points="-382.154,979.877 -222.859,979.575 -79.173,979.315 52.068,979.090 173.324,978.895 286.544,978.724 393.310,978.574 494.932,978.443 592.516,978.329 687.024,978.228 779.310,978.141 870.152,978.066 960.284,978.002 1050.416,977.949 1141.258,977.907 1233.543,977.874 1328.052,977.852 1425.636,977.840 1527.258,977.840 1634.024,977.851 1747.245,977.875 1868.500,977.913 1999.742,977.967 2143.428,978.041 2302.723,978.137 4811.123,9845.710 4047.434,8612.717 3482.151,7741.257 3041.541,7100.434 2683.858,6616.640 2383.601,6245.463 2124.224,5958.687 1894.419,5737.700 1686.095,5569.930 1493.186,5446.802 1310.929,5362.530 1135.380,5313.394 963.083,5297.313 790.807,5313.617 615.323,5362.980 433.175,5447.489 240.425,5570.867 32.319,5738.907 -197.199,5960.191 -456.205,6247.304 -755.980,6618.869 -1113.036,7103.127 -1552.815,7744.520 -2116.968,8616.712 -2879.057,9850.694" fill="url(#vf-grad-1)"/>
<polygon points="942.122,981.331 943.988,981.301 944.018,970.782 942.155,970.756" fill="#4f4943"/>
<polygon points="938.549,981.330 942.122,981.331 942.155,970.756 938.590,970.762" fill="#575652"/>
<polygon points="876.677,981.495 880.338,981.478 880.497,971.577 876.845,971.568" fill="#4f4943"/>
<polygon points="871.739,981.481 876.677,981.495 876.845,971.568 871.916,971.585" fill="#575652"/>
<polygon points="834.928,981.535 839.791,981.525 840.470,954.003 835.636,953.978" fill="#4f4943"/>
<polygon points="833.176,981.514 834.928,981.535 835.636,953.978 833.891,954.067" fill="#575652"/>
<polygon points="1005.935,981.434 1010.404,981.411 1010.235,966.306 1005.780,966.273" fill="#4f4943"/>
<polygon points="1001.191,981.422 1005.935,981.434 1005.780,966.273 1001.051,966.302" fill="#575652"/>
<polygon points="921.854,981.507 926.083,981.502 926.316,945.905 922.118,945.894" fill="#575652"/>
<polygon points="921.112,981.484 921.854,981.507 922.118,945.894 921.381,946.019" fill="#575652"/>
<polygon points="893.600,981.535 897.569,981.524 897.755,966.677 893.799,966.665" fill="#4f4943"/>
<polygon points="891.576,981.521 893.600,981.535 893.799,966.665 891.780,966.692" fill="#575652"/>
<polygon points="979.372,981.502 987.865,981.487 987.760,965.269 979.296,965.256" fill="#575652"/>
<polygon points="977.521,981.480 979.372,981.502 979.296,965.256 977.452,965.301" fill="#575652"/>
<polygon points="958.190,981.539 963.382,981.533 963.368,970.491 958.187,970.491" fill="#575652"/>
<polygon points="957.313,981.517 958.190,981.539 958.187,970.491 957.312,970.514" fill="#575652"/>
<polygon points="1068.911,981.546 1074.007,981.525 1073.509,961.243 1068.433,961.201" fill="#4f4943"/>
<polygon points="1065.038,981.531 1068.911,981.546 1068.433,961.201 1064.578,961.248" fill="#575652"/>
<polygon points="934.830,981.728 937.871,981.707 937.951,961.997 934.923,961.954" fill="#4f4943"/>
<polygon points="929.224,981.717 934.830,981.728 934.923,961.954 929.340,961.993" fill="#575652"/>
<polygon points="753.167,981.931 759.044,981.922 760.389,949.621 754.552,949.602" fill="#575652"/>
<polygon points="752.787,981.912 753.167,981.931 754.552,949.602 754.171,949.690" fill="#575652"/>
<polygon points="880.935,981.870 882.031,981.832 882.160,973.651 881.067,973.638" fill="#4f4943"/>
<polygon points="874.021,981.873 880.935,981.870 881.067,973.638 874.165,973.643" fill="#575652"/>
<polygon points="814.243,981.937 817.804,981.917 818.339,963.662 814.793,963.628" fill="#4f4943"/>
<polygon points="810.169,981.927 814.243,981.937 814.793,963.628 810.733,963.657" fill="#575652"/>
<polygon points="901.499,981.952 908.811,981.932 908.909,972.248 901.613,972.244" fill="#4f4943"/>
<polygon points="898.527,981.927 901.499,981.952 901.613,972.244 898.646,972.262" fill="#575652"/>
<polygon points="1106.061,981.884 1113.645,981.861 1110.969,900.436 1103.507,900.222" fill="#4f4943"/>
<polygon points="1101.766,981.857 1106.061,981.884 1103.507,900.222 1099.297,900.577" fill="#575652"/>
<polygon points="887.022,982.077 892.161,982.053 893.073,915.294 888.010,915.097" fill="#4f4943"/>
<polygon points="882.913,982.060 887.022,982.077 888.010,915.097 883.955,915.284" fill="#575652"/>
<polygon points="780.775,982.186 783.075,982.167 784.853,933.551 782.582,933.434" fill="#4f4943"/>
<polygon points="776.993,982.181 780.775,982.186 782.582,933.434 778.837,933.488" fill="#575652"/>
<polygon points="924.892,982.080 929.875,982.054 930.387,892.951 925.499,892.652" fill="#4f4943"/>
<polygon points="919.688,982.063 924.892,982.080 925.499,892.652 920.390,892.931" fill="#575652"/>
<polygon points="925.499,892.652 930.387,892.951 925.538,871.180" fill="#4f4943"/>
<polygon points="920.390,892.931 925.499,892.652 925.538,871.180" fill="#575652"/>
<polygon points="734.391,982.284 737.625,982.252 741.665,894.668 738.509,894.291" fill="#4f4943"/>
<polygon points="727.999,982.279 734.391,982.284 738.509,894.291 732.229,894.416" fill="#575652"/>
<polygon points="1094.082,982.017 1099.095,981.983 1097.724,935.969 1092.753,935.780" fill="#4f4943"/>
<polygon points="1090.189,982.006 1094.082,982.017 1092.753,935.780 1088.900,935.863" fill="#575652"/>
<polygon points="821.615,982.218 822.841,982.185 823.264,967.218 822.043,967.175" fill="#4f4943"/>
<polygon points="816.665,982.219 821.615,982.218 822.043,967.175 817.109,967.180" fill="#575652"/>
<polygon points="873.810,982.196 882.604,982.186 882.801,969.599 874.030,969.600" fill="#575652"/>
<polygon points="873.377,982.166 873.810,982.196 874.030,969.600 873.598,969.631" fill="#575652"/>
<polygon points="841.542,982.331 849.711,982.314 850.441,949.966 842.329,949.926" fill="#4f4943"/>
<polygon points="839.867,982.301 841.542,982.331 842.329,949.926 840.662,950.053" fill="#575652"/>
<polygon points="870.216,982.297 879.459,982.287 879.958,951.730 870.774,951.725" fill="#575652"/>
<polygon points="870.188,982.277 870.216,982.297 870.774,951.725 870.745,951.799" fill="#575652"/>
<polygon points="818.022,982.389 823.802,982.344 824.991,939.911 819.271,939.685" fill="#4f4943"/>
<polygon points="811.817,982.378 818.022,982.389 819.271,939.685 813.118,939.775" fill="#575652"/>
<polygon points="1046.420,982.296 1047.224,982.254 1046.905,965.370 1046.101,965.305" fill="#4f4943"/>
<polygon points="1039.627,982.296 1046.420,982.296 1046.101,965.305 1039.333,965.317" fill="#575652"/>
<polygon points="747.701,982.583 749.518,982.558 750.820,952.717 749.019,952.635" fill="#4f4943"/>
<polygon points="741.781,982.582 747.701,982.583 749.019,952.635 743.135,952.659" fill="#575652"/>
<polygon points="991.963,982.370 1002.513,982.355 1002.363,966.601 991.848,966.595" fill="#575652"/>
<polygon points="990.576,982.340 991.963,982.370 991.848,966.595 990.465,966.640" fill="#575652"/>
<polygon points="788.104,982.559 792.852,982.522 793.533,962.797 788.808,962.734" fill="#4f4943"/>
<polygon points="782.174,982.548 788.104,982.559 788.808,962.734 782.901,962.768" fill="#575652"/>
<polygon points="857.859,982.544 858.751,982.513 859.342,953.917 858.458,953.817" fill="#4f4943"/>
<polygon points="853.062,982.546 857.859,982.544 858.458,953.817 853.690,953.825" fill="#575652"/>
<polygon points="1053.080,982.498 1060.170,982.485 1059.520,952.416 1052.474,952.392" fill="#575652"/>
<polygon points="1050.670,982.463 1053.080,982.498 1052.474,952.392 1050.082,952.519" fill="#575652"/>
<polygon points="974.253,982.541 980.826,982.514 980.591,935.153 974.083,935.023" fill="#4f4943"/>
<polygon points="971.200,982.523 974.253,982.541 974.083,935.023 971.061,935.142" fill="#575652"/>
<polygon points="881.996,982.659 887.726,982.637 887.970,965.959 882.261,965.936" fill="#4f4943"/>
<polygon points="878.138,982.634 881.996,982.659 882.261,965.936 878.415,965.979" fill="#575652"/>
<polygon points="1073.647,982.595 1080.075,982.585 1079.222,949.521 1072.837,949.503" fill="#575652"/>
<polygon points="1071.449,982.557 1073.647,982.595 1072.837,949.503 1070.659,949.655" fill="#575652"/>
<polygon points="760.339,982.866 767.097,982.844 769.229,929.443 762.552,929.333" fill="#4f4943"/>
<polygon points="758.168,982.843 760.339,982.866 762.552,929.333 760.398,929.495" fill="#575652"/>
<polygon points="943.159,982.679 947.868,982.674 947.884,974.313 943.184,974.315" fill="#575652"/>
<polygon points="942.756,982.643 943.159,982.679 943.184,974.315 942.781,974.323" fill="#575652"/>
<polygon points="1007.462,982.696 1014.651,982.683 1014.453,966.213 1007.288,966.205" fill="#575652"/>
<polygon points="1005.016,982.656 1007.462,982.696 1007.288,966.205 1004.851,966.264" fill="#575652"/>
<polygon points="796.990,982.899 801.794,982.874 803.536,929.495 798.792,929.358" fill="#4f4943"/>
<polygon points="792.043,982.876 796.990,982.899 798.792,929.358 793.894,929.536" fill="#575652"/>
<polygon points="943.227,982.943 948.142,982.928 948.190,957.659 943.301,957.631" fill="#4f4943"/>
<polygon points="940.045,982.914 943.227,982.943 943.301,957.631 940.136,957.712" fill="#575652"/>
<polyline points="783.196,1010.020 415.443,1008.278" fill="none" stroke="#3f6b74" stroke-width="1.6" stroke-opacity="0.250"/>
<polyline points="786.891,1010.405 421.499,1008.653" fill="none" stroke="#173741" stroke-width="1.6" stroke-opacity="0.250"/>
<polyline points="-6.048,1019.715 -404.830,1016.882" fill="none" stroke="#3f6b74" stroke-width="1.6" stroke-opacity="0.250"/>
<polyline points="6.012,1020.110 -390.149,1017.274" fill="none" stroke="#173741" stroke-width="1.6" stroke-opacity="0.250"/>
<polyline points="338.158,1012.994 139.983,1011.889" fill="none" stroke="#3f6b74" stroke-width="1.6" stroke-opacity="0.250"/>
<polyline points="345.692,1013.384 148.799,1012.275" fill="none" stroke="#173741" stroke-width="1.6" stroke-opacity="0.250"/>
<polyline points="1277.776,1008.918 938.455,1007.471" fill="none" stroke="#3f6b74" stroke-width="1.6" stroke-opacity="0.250"/>
<polyline points="1277.802,1009.302 940.819,1007.847" fill="none" stroke="#173741" stroke-width="1.6" stroke-opacity="0.250"/>
<polyline points="2696.011,1022.472 2123.561,1019.489" fill="none" stroke="#3f6b74" stroke-width="1.6" stroke-opacity="0.250"/>
<polyline points="2681.417,1022.878 2115.466,1019.897" fill="none" stroke="#173741" stroke-width="1.6" stroke-opacity="0.250"/>
<polyline points="1698.474,1008.533 1364.014,1007.200" fill="none" stroke="#3f6b74" stroke-width="1.6"/>
<polyline points="1695.217,1008.950 1363.397,1007.608" fill="none" stroke="#173741" stroke-width="1.6"/>
<polyline points="1983.469,1013.132 1347.740,1010.306" fill="none" stroke="#3f6b74" stroke-width="1.6" stroke-opacity="0.250"/>
<polyline points="1977.682,1013.535 1347.238,1010.696" fill="none" stroke="#173741" stroke-width="1.6" stroke-opacity="0.250"/>
<polyline points="1277.638,1006.857 922.282,1005.449" fill="none" stroke="#3f6b74" stroke-width="1.6"/>
<polyline points="1277.665,1007.262 924.789,1005.843" fill="none" stroke="#173741" stroke-width="1.6"/>
<polyline points="2481.611,1019.695 1896.453,1016.770" fill="none" stroke="#3f6b74" stroke-width="1.6" stroke-opacity="0.250"/>
<polyline points="2469.968,1020.105 1890.914,1017.177" fill="none" stroke="#173741" stroke-width="1.6" stroke-opacity="0.250"/>
<polyline points="1277.848,1009.997 785.216,1007.822" fill="none" stroke="#3f6b74" stroke-width="1.6" stroke-opacity="0.250"/>
<polyline points="1277.874,1010.385 788.664,1008.198" fill="none" stroke="#173741" stroke-width="1.6" stroke-opacity="0.250"/>
<polyline points="-23.869,1017.301 -358.060,1015.062" fill="none" stroke="#3f6b74" stroke-width="1.6"/>
<polyline points="-11.386,1017.727 -343.311,1015.484" fill="none" stroke="#173741" stroke-width="1.6"/>
<polyline points="2031.467,1014.622 1415.537,1011.780" fill="none" stroke="#3f6b74" stroke-width="1.6" stroke-opacity="0.250"/>
<polyline points="2025.042,1015.027 1414.479,1012.175" fill="none" stroke="#173741" stroke-width="1.6" stroke-opacity="0.250"/>
<polyline points="692.658,1013.476 178.246,1010.725" fill="none" stroke="#3f6b74" stroke-width="1.6" stroke-opacity="0.250"/>
<polyline points="697.451,1013.870 186.499,1011.108" fill="none" stroke="#173741" stroke-width="1.6" stroke-opacity="0.250"/>
<polyline points="6.765,1022.077 -435.032,1018.759" fill="none" stroke="#3f6b74" stroke-width="1.6" stroke-opacity="0.250"/>
<polyline points="19.346,1022.471 -419.411,1019.151" fill="none" stroke="#173741" stroke-width="1.6" stroke-opacity="0.250"/>
<polyline points="3011.906,1028.073 2107.911,1022.948" fill="none" stroke="#3f6b74" stroke-width="1.6" stroke-opacity="0.250"/>
<polyline points="2991.932,1028.464 2099.362,1023.351" fill="none" stroke="#173741" stroke-width="1.6" stroke-opacity="0.250"/>
<polyline points="824.440,1011.444 537.180,1010.027" fill="none" stroke="#3f6b74" stroke-width="1.6" stroke-opacity="0.250"/>
<polyline points="827.971,1011.835 542.675,1010.410" fill="none" stroke="#173741" stroke-width="1.6" stroke-opacity="0.250"/>
<polyline points="2016.374,1012.158 1394.265,1009.483" fill="none" stroke="#3f6b74" stroke-width="1.6"/>
<polyline points="2009.990,1012.590 1393.364,1009.902" fill="none" stroke="#173741" stroke-width="1.6"/>
<polyline points="1277.925,1011.147 789.848,1008.910" fill="none" stroke="#3f6b74" stroke-width="1.6" stroke-opacity="0.250"/>
<polyline points="1277.952,1011.539 793.378,1009.291" fill="none" stroke="#173741" stroke-width="1.6" stroke-opacity="0.250"/>
<polyline points="400.403,1018.404 -158.671,1014.816" fill="none" stroke="#3f6b74" stroke-width="1.6" stroke-opacity="0.250"/>
<polyline points="408.462,1018.802 -146.714,1015.207" fill="none" stroke="#173741" stroke-width="1.6" stroke-opacity="0.250"/>
<polyline points="2817.440,1022.032 1955.165,1017.653" fill="none" stroke="#3f6b74" stroke-width="1.6"/>
<polyline points="2800.449,1022.474 1948.467,1018.093" fill="none" stroke="#173741" stroke-width="1.6"/>
<polyline points="1277.780,1008.984 774.908,1006.838" fill="none" stroke="#3f6b74" stroke-width="1.6"/>
<polyline points="1277.808,1009.400 778.595,1007.239" fill="none" stroke="#173741" stroke-width="1.6"/>
<polyline points="135.754,1018.619 -76.125,1017.189" fill="none" stroke="#3f6b74" stroke-width="1.6" stroke-opacity="0.250"/>
<polyline points="146.243,1019.015 -64.151,1017.583" fill="none" stroke="#173741" stroke-width="1.6" stroke-opacity="0.250"/>
<polyline points="1827.056,1015.004 1489.337,1013.386" fill="none" stroke="#3f6b74" stroke-width="1.6" stroke-opacity="0.250"/>
<polyline points="1822.352,1015.408 1487.624,1013.785" fill="none" stroke="#173741" stroke-width="1.6" stroke-opacity="0.250"/>
<polyline points="499.319,1017.178 46.680,1014.407" fill="none" stroke="#3f6b74" stroke-width="1.6" stroke-opacity="0.250"/>
<polyline points="506.280,1017.576 56.862,1014.799" fill="none" stroke="#173741" stroke-width="1.6" stroke-opacity="0.250"/>
<polyline points="1278.008,1012.376 935.493,1010.744" fill="none" stroke="#3f6b74" stroke-width="1.6" stroke-opacity="0.250"/>
<polyline points="1278.034,1012.772 938.119,1011.132" fill="none" stroke="#173741" stroke-width="1.6" stroke-opacity="0.250"/>
<polyline points="711.584,1011.380 413.039,1009.884" fill="none" stroke="#3f6b74" stroke-width="1.6"/>
<polyline points="716.323,1011.800 419.923,1010.297" fill="none" stroke="#173741" stroke-width="1.6"/>
<polyline points="1808.304,1016.330 1496.278,1014.776" fill="none" stroke="#3f6b74" stroke-width="1.6" stroke-opacity="0.250"/>
<polyline points="1803.614,1016.736 1494.445,1015.178" fill="none" stroke="#173741" stroke-width="1.6" stroke-opacity="0.250"/>
<polyline points="630.811,1014.630 436.480,1013.543" fill="none" stroke="#3f6b74" stroke-width="1.6" stroke-opacity="0.250"/>
<polyline points="636.262,1015.026 443.340,1013.935" fill="none" stroke="#173741" stroke-width="1.6" stroke-opacity="0.250"/>
<polyline points="2028.063,1014.906 1457.051,1012.249" fill="none" stroke="#3f6b74" stroke-width="1.6"/>
<polyline points="2021.104,1015.344 1455.535,1012.677" fill="none" stroke="#173741" stroke-width="1.6"/>
<polyline points="604.637,1016.085 331.148,1014.485" fill="none" stroke="#3f6b74" stroke-width="1.6" stroke-opacity="0.250"/>
<polyline points="610.514,1016.483 339.039,1014.879" fill="none" stroke="#173741" stroke-width="1.6" stroke-opacity="0.250"/>
<polyline points="1278.096,1013.692 1009.743,1012.361" fill="none" stroke="#3f6b74" stroke-width="1.6" stroke-opacity="0.250"/>
<polyline points="1278.122,1014.091 1011.901,1012.755" fill="none" stroke="#173741" stroke-width="1.6" stroke-opacity="0.250"/>
<polyline points="1277.943,1011.418 765.900,1009.051" fill="none" stroke="#3f6b74" stroke-width="1.6"/>
<polyline points="1277.972,1011.843 769.915,1009.463" fill="none" stroke="#173741" stroke-width="1.6"/>
<polyline points="1868.725,1018.165 1409.986,1015.787" fill="none" stroke="#3f6b74" stroke-width="1.6" stroke-opacity="0.250"/>
<polyline points="1863.264,1018.572 1408.863,1016.189" fill="none" stroke="#173741" stroke-width="1.6" stroke-opacity="0.250"/>
<polyline points="2280.664,1022.048 1492.754,1017.782" fill="none" stroke="#3f6b74" stroke-width="1.6" stroke-opacity="0.250"/>
<polyline points="2270.497,1022.453 1490.816,1018.187" fill="none" stroke="#173741" stroke-width="1.6" stroke-opacity="0.250"/>
<polyline points="6.455,1022.168 -324.840,1019.671" fill="none" stroke="#3f6b74" stroke-width="1.6"/>
<polyline points="20.077,1022.592 -308.682,1020.095" fill="none" stroke="#173741" stroke-width="1.6"/>
<polyline points="1278.190,1015.105 707.094,1012.160" fill="none" stroke="#3f6b74" stroke-width="1.6" stroke-opacity="0.250"/>
<polyline points="1278.217,1015.506 711.610,1012.551" fill="none" stroke="#173741" stroke-width="1.6" stroke-opacity="0.250"/>
<polyline points="736.799,1014.531 271.104,1011.977" fill="none" stroke="#3f6b74" stroke-width="1.6"/>
<polyline points="741.725,1014.960 279.577,1012.396" fill="none" stroke="#173741" stroke-width="1.6"/>
<polyline points="141.627,1025.674 -209.486,1022.874" fill="none" stroke="#3f6b74" stroke-width="1.6" stroke-opacity="0.250"/>
<polyline points="153.768,1026.060 -194.565,1023.264" fill="none" stroke="#173741" stroke-width="1.6" stroke-opacity="0.250"/>
<polyline points="1278.292,1016.625 752.883,1013.799" fill="none" stroke="#3f6b74" stroke-width="1.6" stroke-opacity="0.250"/>
<polyline points="1278.319,1017.028 757.226,1014.194" fill="none" stroke="#173741" stroke-width="1.6" stroke-opacity="0.250"/>
<polyline points="-222.390,1031.922 -457.805,1029.645" fill="none" stroke="#3f6b74" stroke-width="1.6" stroke-opacity="0.250"/>
<polyline points="-204.463,1032.279 -437.968,1030.013" fill="none" stroke="#173741" stroke-width="1.6" stroke-opacity="0.250"/>
<polyline points="1838.506,1017.062 1349.553,1014.590" fill="none" stroke="#3f6b74" stroke-width="1.6"/>
<polyline points="1833.053,1017.501 1348.929,1015.023" fill="none" stroke="#173741" stroke-width="1.6"/>
<polyline points="1278.132,1014.230 807.981,1011.863" fill="none" stroke="#3f6b74" stroke-width="1.6"/>
<polyline points="1278.161,1014.662 811.978,1012.286" fill="none" stroke="#173741" stroke-width="1.6"/>
<polyline points="2777.824,1030.559 2104.341,1026.440" fill="none" stroke="#3f6b74" stroke-width="1.6"/>
<polyline points="2758.365,1030.967 2094.489,1026.864" fill="none" stroke="#173741" stroke-width="1.6"/>
<polyline points="1278.402,1018.266 701.162,1015.024" fill="none" stroke="#3f6b74" stroke-width="1.6" stroke-opacity="0.250"/>
<polyline points="1278.429,1018.669 706.078,1015.421" fill="none" stroke="#173741" stroke-width="1.6" stroke-opacity="0.250"/>
<polyline points="739.103,1018.127 156.876,1014.604" fill="none" stroke="#3f6b74" stroke-width="1.6"/>
<polyline points="744.455,1018.559 166.967,1015.029" fill="none" stroke="#173741" stroke-width="1.6"/>
<polyline points="1856.846,1021.529 1359.886,1018.725" fill="none" stroke="#3f6b74" stroke-width="1.6" stroke-opacity="0.250"/>
<polyline points="1851.085,1021.933 1359.151,1019.129" fill="none" stroke="#173741" stroke-width="1.6" stroke-opacity="0.250"/>
<polyline points="2519.083,1032.126 2065.483,1029.176" fill="none" stroke="#3f6b74" stroke-width="1.6" stroke-opacity="0.250"/>
<polyline points="2503.813,1032.493 2056.343,1029.558" fill="none" stroke="#173741" stroke-width="1.6" stroke-opacity="0.250"/>
<polyline points="2156.071,1025.222 1523.600,1021.486" fill="none" stroke="#3f6b74" stroke-width="1.6" stroke-opacity="0.250"/>
<polyline points="2146.597,1025.620 1521.187,1021.889" fill="none" stroke="#173741" stroke-width="1.6" stroke-opacity="0.250"/>
<polyline points="305.034,1029.943 -347.090,1024.412" fill="none" stroke="#3f6b74" stroke-width="1.6" stroke-opacity="0.250"/>
<polyline points="316.339,1030.312 -330.294,1024.799" fill="none" stroke="#173741" stroke-width="1.6" stroke-opacity="0.250"/>
<polyline points="686.511,1022.348 201.985,1019.067" fill="none" stroke="#3f6b74" stroke-width="1.6" stroke-opacity="0.250"/>
<polyline points="692.475,1022.745 211.980,1019.463" fill="none" stroke="#173741" stroke-width="1.6" stroke-opacity="0.250"/>
<polyline points="2790.067,1036.693 2027.444,1031.478" fill="none" stroke="#3f6b74" stroke-width="1.6" stroke-opacity="0.250"/>
<polyline points="2769.950,1037.029 2018.389,1031.847" fill="none" stroke="#173741" stroke-width="1.6" stroke-opacity="0.250"/>
<polyline points="632.126,1024.268 84.365,1020.358" fill="none" stroke="#3f6b74" stroke-width="1.6" stroke-opacity="0.250"/>
<polyline points="638.894,1024.660 95.757,1020.754" fill="none" stroke="#173741" stroke-width="1.6" stroke-opacity="0.250"/>
<polyline points="1997.595,1021.494 1532.090,1018.917" fill="none" stroke="#3f6b74" stroke-width="1.6"/>
<polyline points="1989.841,1021.932 1529.540,1019.354" fill="none" stroke="#173741" stroke-width="1.6"/>
<polyline points="-207.443,1040.490 -741.428,1034.491" fill="none" stroke="#3f6b74" stroke-width="1.6" stroke-opacity="0.250"/>
<polyline points="-187.002,1040.783 -716.369,1034.831" fill="none" stroke="#173741" stroke-width="1.6" stroke-opacity="0.250"/>
<polyline points="1278.521,1020.042 765.499,1017.027" fill="none" stroke="#3f6b74" stroke-width="1.6" stroke-opacity="0.250"/>
<polyline points="1278.548,1020.445 770.094,1017.427" fill="none" stroke="#173741" stroke-width="1.6" stroke-opacity="0.250"/>
<polyline points="2222.205,1027.806 1519.928,1023.461" fill="none" stroke="#3f6b74" stroke-width="1.6" stroke-opacity="0.250"/>
<polyline points="2211.492,1028.194 1517.453,1023.860" fill="none" stroke="#173741" stroke-width="1.6" stroke-opacity="0.250"/>
<polyline points="423.516,1025.219 109.487,1022.851" fill="none" stroke="#3f6b74" stroke-width="1.6" stroke-opacity="0.250"/>
<polyline points="432.606,1025.607 121.265,1023.243" fill="none" stroke="#173741" stroke-width="1.6" stroke-opacity="0.250"/>
<polyline points="706.834,1022.216 29.492,1017.659" fill="none" stroke="#3f6b74" stroke-width="1.6"/>
<polyline points="713.040,1022.645 41.578,1018.086" fill="none" stroke="#173741" stroke-width="1.6"/>
<polyline points="1278.650,1021.972 580.472,1017.675" fill="none" stroke="#3f6b74" stroke-width="1.6" stroke-opacity="0.250"/>
<polyline points="1278.677,1022.372 586.793,1018.074" fill="none" stroke="#173741" stroke-width="1.6" stroke-opacity="0.250"/>
<polyline points="1278.352,1017.515 883.945,1015.341" fill="none" stroke="#3f6b74" stroke-width="1.6"/>
<polyline points="1278.381,1017.951 887.622,1015.772" fill="none" stroke="#173741" stroke-width="1.6"/>
<polyline points="1278.791,1024.074 605.655,1019.726" fill="none" stroke="#3f6b74" stroke-width="1.6" stroke-opacity="0.250"/>
<polyline points="1278.817,1024.470 612.045,1020.125" fill="none" stroke="#173741" stroke-width="1.6" stroke-opacity="0.250"/>
<polyline points="1941.075,1028.368 1400.042,1024.859" fill="none" stroke="#3f6b74" stroke-width="1.6" stroke-opacity="0.250"/>
<polyline points="1933.508,1028.753 1398.777,1025.254" fill="none" stroke="#173741" stroke-width="1.6" stroke-opacity="0.250"/>
<polyline points="390.812,1025.072 98.884,1022.866" fill="none" stroke="#3f6b74" stroke-width="1.6"/>
<polyline points="400.971,1025.492 111.724,1023.289" fill="none" stroke="#173741" stroke-width="1.6"/>
<polyline points="309.028,1033.306 -156.510,1029.092" fill="none" stroke="#3f6b74" stroke-width="1.6" stroke-opacity="0.250"/>
<polyline points="320.978,1033.657 -140.214,1029.464" fill="none" stroke="#173741" stroke-width="1.6" stroke-opacity="0.250"/>
<polyline points="184.602,1029.546 -162.366,1026.564" fill="none" stroke="#3f6b74" stroke-width="1.6"/>
<polyline points="198.199,1029.947 -145.527,1026.976" fill="none" stroke="#173741" stroke-width="1.6"/>
<polyline points="1874.411,1025.035 1422.357,1022.279" fill="none" stroke="#3f6b74" stroke-width="1.6"/>
<polyline points="1867.521,1025.464 1420.816,1022.712" fill="none" stroke="#173741" stroke-width="1.6"/>
<polyline points="1278.612,1021.404 836.451,1018.717" fill="none" stroke="#3f6b74" stroke-width="1.6"/>
<polyline points="1278.641,1021.838 840.909,1019.150" fill="none" stroke="#173741" stroke-width="1.6"/>
<polyline points="541.375,1028.870 265.884,1026.667" fill="none" stroke="#3f6b74" stroke-width="1.6" stroke-opacity="0.250"/>
<polyline points="549.800,1029.246 276.933,1027.050" fill="none" stroke="#173741" stroke-width="1.6" stroke-opacity="0.250"/>
<polyline points="1881.772,1030.484 1416.274,1027.310" fill="none" stroke="#3f6b74" stroke-width="1.6" stroke-opacity="0.250"/>
<polyline points="1874.622,1030.858 1414.765,1027.696" fill="none" stroke="#173741" stroke-width="1.6" stroke-opacity="0.250"/>
<polyline points="1278.945,1026.374 840.365,1023.392" fill="none" stroke="#3f6b74" stroke-width="1.6" stroke-opacity="0.250"/>
<polyline points="1278.971,1026.764 844.893,1023.788" fill="none" stroke="#173741" stroke-width="1.6" stroke-opacity="0.250"/>
<polyline points="232.618,1037.807 -489.068,1030.634" fill="none" stroke="#3f6b74" stroke-width="1.6"/>
<polyline points="247.599,1038.151 -466.865,1031.026" fill="none" stroke="#173741" stroke-width="1.6"/>
<polyline points="1996.401,1034.055 1428.923,1029.977" fill="none" stroke="#3f6b74" stroke-width="1.6" stroke-opacity="0.250"/>
<polyline points="1987.336,1034.408 1427.190,1030.352" fill="none" stroke="#173741" stroke-width="1.6" stroke-opacity="0.250"/>
<polyline points="2274.224,1032.826 1394.149,1026.860" fill="none" stroke="#3f6b74" stroke-width="1.6"/>
<polyline points="2260.869,1033.217 1392.799,1027.279" fill="none" stroke="#173741" stroke-width="1.6"/>
<polyline points="97.266,1049.457 -652.766,1040.293" fill="none" stroke="#3f6b74" stroke-width="1.6" stroke-opacity="0.250"/>
<polyline points="115.803,1049.651 -626.416,1040.587" fill="none" stroke="#173741" stroke-width="1.6" stroke-opacity="0.250"/>
<polyline points="1279.114,1028.902 782.786,1025.345" fill="none" stroke="#3f6b74" stroke-width="1.6" stroke-opacity="0.250"/>
<polyline points="1279.140,1029.281 788.107,1025.736" fill="none" stroke="#173741" stroke-width="1.6" stroke-opacity="0.250"/>
<polyline points="-235.693,1056.428 -1090.193,1044.234" fill="none" stroke="#3f6b74" stroke-width="1.6"/>
<polyline points="-207.740,1056.528 -1053.342,1044.508" fill="none" stroke="#173741" stroke-width="1.6"/>
<polyline points="1280.316,1046.845 717.131,1041.341" fill="none" stroke="#3f6b74" stroke-width="1.6" stroke-opacity="0.250"/>
<polyline points="1280.331,1047.073 725.016,1041.628" fill="none" stroke="#173741" stroke-width="1.6" stroke-opacity="0.250"/>
<polygon points="1280.316,1046.845 717.131,1041.341 704.643,1045.357 1280.618,1051.363" fill="#173741" fill-opacity="0.250"/>
<polygon points="1280.241,1045.730 720.498,1040.351 717.131,1041.341 1280.316,1046.845" fill="#f4e8d4" fill-opacity="0.250"/>
<polyline points="2955.618,1074.942 1634.130,1060.191" fill="none" stroke="#3f6b74" stroke-width="1.6" stroke-opacity="0.250"/>
<polyline points="2919.454,1074.660 1627.665,1060.222" fill="none" stroke="#173741" stroke-width="1.6" stroke-opacity="0.250"/>
<polygon points="2955.618,1074.942 1634.130,1060.191 1645.138,1066.086 3015.964,1082.480" fill="#173741" fill-opacity="0.250"/>
<polygon points="2939.648,1073.086 1631.203,1058.738 1634.130,1060.191 2955.618,1074.942" fill="#f4e8d4" fill-opacity="0.250"/>
<polyline points="4001.324,1092.162 1773.325,1065.998" fill="none" stroke="#3f6b74" stroke-width="1.6"/>
<polyline points="3927.515,1091.340 1763.006,1065.911" fill="none" stroke="#173741" stroke-width="1.6"/>
<polygon points="4001.324,1092.162 1773.325,1065.998 1790.838,1072.994 4125.986,1102.562" fill="#173741"/>
<polygon points="3968.716,1089.618 1768.690,1064.279 1773.325,1065.998 4001.324,1092.162" fill="#f4e8d4"/>
<polyline points="1280.475,1049.229 332.388,1039.640" fill="none" stroke="#3f6b74" stroke-width="1.6"/>
<polyline points="1280.490,1049.441 346.176,1039.963" fill="none" stroke="#173741" stroke-width="1.6"/>
<polygon points="1280.475,1049.229 332.388,1039.640 310.305,1043.782 1280.816,1054.313" fill="#173741"/>
<polygon points="1280.392,1047.977 338.331,1038.621 332.388,1039.640 1280.475,1049.229" fill="#f4e8d4"/>
<polyline points="1280.652,1051.871 664.602,1045.402" fill="none" stroke="#3f6b74" stroke-width="1.6" stroke-opacity="0.250"/>
<polyline points="1280.663,1052.034 673.740,1045.646" fill="none" stroke="#173741" stroke-width="1.6" stroke-opacity="0.250"/>
<polygon points="1280.652,1051.871 664.602,1045.402 650.067,1049.767 1280.986,1056.848" fill="#173741" fill-opacity="0.250"/>
<polygon points="1280.570,1050.643 668.514,1044.325 664.602,1045.402 1280.652,1051.871" fill="#f4e8d4" fill-opacity="0.250"/>
<polyline points="1280.946,1056.254 350.417,1045.893" fill="none" stroke="#3f6b74" stroke-width="1.6" stroke-opacity="0.250"/>
<polyline points="1280.952,1056.352 364.497,1046.135" fill="none" stroke="#173741" stroke-width="1.6" stroke-opacity="0.250"/>
<polygon points="1280.946,1056.254 350.417,1045.893 327.835,1050.365 1281.313,1061.740" fill="#173741" fill-opacity="0.250"/>
<polygon points="1280.855,1054.901 356.486,1044.791 350.417,1045.893 1280.946,1056.254" fill="#f4e8d4" fill-opacity="0.250"/>
<polyline points="2753.726,1083.685 1780.318,1071.539" fill="none" stroke="#3f6b74" stroke-width="1.6" stroke-opacity="0.250"/>
<polyline points="2720.169,1083.187 1770.244,1071.344" fill="none" stroke="#173741" stroke-width="1.6" stroke-opacity="0.250"/>
<polygon points="2753.726,1083.685 1780.318,1071.539 1797.375,1078.445 2809.962,1091.994" fill="#173741" fill-opacity="0.250"/>
<polygon points="2738.882,1081.637 1775.797,1069.836 1780.318,1071.539 2753.726,1083.685" fill="#f4e8d4" fill-opacity="0.250"/>
<polyline points="47.987,1082.735 -538.657,1072.041" fill="none" stroke="#3f6b74" stroke-width="1.6" stroke-opacity="0.250"/>
<polyline points="76.158,1082.258 -501.312,1071.832" fill="none" stroke="#173741" stroke-width="1.6" stroke-opacity="0.250"/>
<polygon points="47.987,1082.735 -538.657,1072.041 -599.855,1079.083 1.692,1091.029" fill="#173741" fill-opacity="0.250"/>
<polygon points="60.223,1080.693 -522.405,1070.305 -538.657,1072.041 47.987,1082.735" fill="#f4e8d4" fill-opacity="0.250"/>
<polyline points="1281.553,1065.322 439.087,1054.832" fill="none" stroke="#3f6b74" stroke-width="1.6" stroke-opacity="0.250"/>
<polyline points="1281.549,1065.257 453.053,1054.948" fill="none" stroke="#173741" stroke-width="1.6" stroke-opacity="0.250"/>
<polygon points="1281.553,1065.322 439.087,1054.832 416.633,1059.996 1281.970,1071.554" fill="#173741" fill-opacity="0.250"/>
<polygon points="1281.450,1063.784 445.103,1053.557 439.087,1054.832 1281.553,1065.322" fill="#f4e8d4" fill-opacity="0.250"/>
<polyline points="3917.393,1120.931 1475.259,1084.630" fill="none" stroke="#3f6b74" stroke-width="1.6" stroke-opacity="0.250"/>
<polyline points="3836.316,1119.114 1470.788,1084.105" fill="none" stroke="#173741" stroke-width="1.6" stroke-opacity="0.250"/>
<polygon points="3917.393,1120.931 1475.259,1084.630 1483.196,1093.077 4055.732,1134.340" fill="#173741" fill-opacity="0.250"/>
<polygon points="3881.495,1117.651 1473.173,1082.550 1475.259,1084.630 3917.393,1120.931" fill="#f4e8d4" fill-opacity="0.250"/>
<polyline points="2717.233,1089.660 1516.657,1073.757" fill="none" stroke="#3f6b74" stroke-width="1.6" stroke-opacity="0.250"/>
<polyline points="2681.848,1088.975 1511.676,1073.505" fill="none" stroke="#173741" stroke-width="1.6" stroke-opacity="0.250"/>
<polygon points="2717.233,1089.660 1516.657,1073.757 1525.355,1081.092 2776.848,1098.937" fill="#173741" fill-opacity="0.250"/>
<polygon points="2701.561,1087.380 1514.360,1071.950 1516.657,1073.757 2717.233,1089.660" fill="#f4e8d4" fill-opacity="0.250"/>
<polyline points="1281.212,1060.227 741.629,1053.905" fill="none" stroke="#3f6b74" stroke-width="1.6"/>
<polyline points="1281.214,1060.259 751.394,1054.049" fill="none" stroke="#173741" stroke-width="1.6"/>
<polygon points="1281.212,1060.227 741.629,1053.905 726.009,1059.536 1281.636,1066.556" fill="#173741"/>
<polygon points="1281.108,1058.671 745.805,1052.520 741.629,1053.905 1281.212,1060.227" fill="#f4e8d4"/>
<polyline points="1281.910,1070.649 493.827,1060.226" fill="none" stroke="#3f6b74" stroke-width="1.6" stroke-opacity="0.250"/>
<polyline points="1281.898,1070.469 508.143,1060.256" fill="none" stroke="#173741" stroke-width="1.6" stroke-opacity="0.250"/>
<polygon points="1281.910,1070.649 493.827,1060.226 470.741,1066.073 1282.377,1077.629" fill="#173741" fill-opacity="0.250"/>
<polygon points="1281.795,1068.929 499.993,1058.784 493.827,1060.226 1281.910,1070.649" fill="#f4e8d4" fill-opacity="0.250"/>
<polyline points="3259.711,1104.295 1463.071,1078.984" fill="none" stroke="#3f6b74" stroke-width="1.6"/>
<polyline points="3200.252,1103.019 1458.690,1078.571" fill="none" stroke="#173741" stroke-width="1.6"/>
<polygon points="3259.711,1104.295 1463.071,1078.984 1470.907,1087.618 3361.133,1116.524" fill="#173741"/>
<polygon points="3233.355,1101.311 1461.018,1076.867 1463.071,1078.984 3259.711,1104.295" fill="#f4e8d4"/>
<polyline points="3619.463,1131.892 1603.838,1098.570" fill="none" stroke="#3f6b74" stroke-width="1.6" stroke-opacity="0.250"/>
<polyline points="3542.467,1129.586 1595.478,1097.619" fill="none" stroke="#173741" stroke-width="1.6" stroke-opacity="0.250"/>
<polygon points="3619.463,1131.892 1603.838,1098.570 1618.417,1108.750 3751.725,1146.952" fill="#173741" fill-opacity="0.250"/>
<polygon points="3585.309,1128.216 1600.024,1096.068 1603.838,1098.570 3619.463,1131.892" fill="#f4e8d4" fill-opacity="0.250"/>
<polyline points="1282.654,1081.770 309.453,1067.329" fill="none" stroke="#3f6b74" stroke-width="1.6" stroke-opacity="0.250"/>
<polyline points="1282.624,1081.323 328.236,1067.224" fill="none" stroke="#173741" stroke-width="1.6" stroke-opacity="0.250"/>
<polygon points="1282.654,1081.770 309.453,1067.329 278.968,1073.790 1283.197,1089.872" fill="#173741" fill-opacity="0.250"/>
<polygon points="1282.521,1079.774 317.573,1065.735 309.453,1067.329 1282.654,1081.770" fill="#f4e8d4" fill-opacity="0.250"/>
<polyline points="1282.297,1076.440 63.104,1059.295" fill="none" stroke="#3f6b74" stroke-width="1.6"/>
<polyline points="1282.275,1076.097 86.768,1059.344" fill="none" stroke="#173741" stroke-width="1.6"/>
<polygon points="1282.297,1076.440 63.104,1059.295 24.579,1065.534 1282.854,1084.744" fill="#173741"/>
<polygon points="1282.161,1074.402 73.361,1057.761 63.104,1059.295 1282.297,1076.440" fill="#f4e8d4"/>
<polyline points="3875.282,1152.641 1964.298,1117.717" fill="none" stroke="#3f6b74" stroke-width="1.6" stroke-opacity="0.250"/>
<polyline points="3777.421,1149.216 1943.569,1116.022" fill="none" stroke="#173741" stroke-width="1.6" stroke-opacity="0.250"/>
<polygon points="3875.282,1152.641 1964.298,1117.717 2000.133,1130.769 4045.578,1171.485" fill="#173741" fill-opacity="0.250"/>
<polygon points="3831.774,1148.072 1955.001,1114.524 1964.298,1117.717 3875.282,1152.641" fill="#f4e8d4" fill-opacity="0.250"/>
<polyline points="1283.425,1093.277 72.771,1073.295" fill="none" stroke="#3f6b74" stroke-width="1.6" stroke-opacity="0.250"/>
<polyline points="1283.373,1092.498 97.579,1073.060" fill="none" stroke="#173741" stroke-width="1.6" stroke-opacity="0.250"/>
<polygon points="1283.425,1093.277 72.771,1073.295 32.267,1080.382 1284.060,1102.766" fill="#173741" fill-opacity="0.250"/>
<polygon points="1283.269,1090.943 83.530,1071.546 72.771,1073.295 1283.425,1093.277" fill="#f4e8d4" fill-opacity="0.250"/>
<polyline points="9512.458,1357.441 2122.803,1172.622" fill="none" stroke="#3f6b74" stroke-width="1.6"/>
<polyline points="8837.160,1333.190 2086.041,1167.782" fill="none" stroke="#173741" stroke-width="1.6"/>
<polygon points="9512.458,1357.441 2122.803,1172.622 2188.564,1196.356 10852.008,1437.593" fill="#173741"/>
<polygon points="9205.311,1339.611 2106.242,1166.925 2122.803,1172.622 9512.458,1357.441" fill="#f4e8d4"/>
<polyline points="1284.139,1103.945 -423.691,1073.119" fill="none" stroke="#3f6b74" stroke-width="1.6"/>
<polyline points="1284.056,1102.708 -385.752,1072.868" fill="none" stroke="#173741" stroke-width="1.6"/>
<polygon points="1284.139,1103.945 -423.691,1073.119 -486.125,1080.831 1284.937,1115.857" fill="#173741"/>
<polygon points="1283.944,1101.034 -407.172,1071.224 -423.691,1073.119 1284.139,1103.945" fill="#f4e8d4"/>
<polyline points="4796.575,1202.801 1603.962,1134.228" fill="none" stroke="#3f6b74" stroke-width="1.6" stroke-opacity="0.250"/>
<polyline points="4632.495,1196.222 1593.373,1131.853" fill="none" stroke="#173741" stroke-width="1.6" stroke-opacity="0.250"/>
<polygon points="4796.575,1202.801 1603.962,1134.228 1622.784,1149.363 5089.154,1230.883" fill="#173741" fill-opacity="0.250"/>
<polygon points="4723.337,1196.077 1599.112,1130.531 1603.962,1134.228 4796.575,1202.801" fill="#f4e8d4" fill-opacity="0.250"/>
<polyline points="3244.897,1139.382 1764.036,1112.615" fill="none" stroke="#3f6b74" stroke-width="1.6"/>
<polyline points="3171.419,1136.481 1748.901,1111.023" fill="none" stroke="#173741" stroke-width="1.6"/>
<polygon points="3244.897,1139.382 1764.036,1112.615 1790.480,1125.863 3372.859,1157.199" fill="#173741"/>
<polygon points="3212.186,1135.070 1757.194,1109.384 1764.036,1112.615 3244.897,1139.382" fill="#f4e8d4"/>
<polyline points="6147.085,1264.863 1768.148,1158.488" fill="none" stroke="#3f6b74" stroke-width="1.6" stroke-opacity="0.250"/>
<polyline points="5854.103,1252.639 1749.336,1154.754" fill="none" stroke="#173741" stroke-width="1.6" stroke-opacity="0.250"/>
<polygon points="6147.085,1264.863 1768.148,1158.488 1801.690,1178.232 6690.395,1309.487" fill="#173741" fill-opacity="0.250"/>
<polygon points="6015.399,1254.445 1759.610,1153.705 1768.148,1158.488 6147.085,1264.863" fill="#f4e8d4" fill-opacity="0.250"/>
<polyline points="1285.710,1127.397 -482.727,1089.464" fill="none" stroke="#3f6b74" stroke-width="1.6" stroke-opacity="0.250"/>
<polyline points="1285.572,1125.338 -441.200,1088.814" fill="none" stroke="#173741" stroke-width="1.6" stroke-opacity="0.250"/>
<polygon points="1285.710,1127.397 -482.727,1089.464 -551.323,1098.292 1286.652,1141.463" fill="#173741" fill-opacity="0.250"/>
<polygon points="1285.479,1123.955 -464.627,1087.289 -482.727,1089.464 1285.710,1127.397" fill="#f4e8d4" fill-opacity="0.250"/>
<polyline points="1284.230,1105.296 399.671,1089.150" fill="none" stroke="#3f6b74" stroke-width="1.6" stroke-opacity="0.250"/>
<polyline points="1284.149,1104.093 421.032,1088.489" fill="none" stroke="#173741" stroke-width="1.6" stroke-opacity="0.250"/>
<polygon points="1284.230,1105.296 399.671,1089.150 364.587,1098.241 1284.983,1116.541" fill="#173741" fill-opacity="0.250"/>
<polygon points="1284.045,1102.538 408.919,1086.914 399.671,1089.150 1284.230,1105.296" fill="#f4e8d4" fill-opacity="0.250"/>
<polyline points="6351.199,1332.463 1873.277,1200.225" fill="none" stroke="#3f6b74" stroke-width="1.6" stroke-opacity="0.250"/>
<polyline points="5986.222,1312.981 1845.886,1193.822" fill="none" stroke="#173741" stroke-width="1.6" stroke-opacity="0.250"/>
<polygon points="6351.199,1332.463 1873.277,1200.225 1922.966,1227.820 7053.004,1397.124" fill="#173741" fill-opacity="0.250"/>
<polygon points="6186.029,1317.723 1860.844,1193.614 1873.277,1200.225 6351.199,1332.463" fill="#f4e8d4" fill-opacity="0.250"/>
<polyline points="1287.009,1146.807 -459.479,1104.429" fill="none" stroke="#3f6b74" stroke-width="1.6" stroke-opacity="0.250"/>
<polyline points="1286.803,1143.730 -411.984,1103.267" fill="none" stroke="#173741" stroke-width="1.6" stroke-opacity="0.250"/>
<polygon points="1287.009,1146.807 -459.479,1104.429 -538.735,1115.453 1288.191,1164.452" fill="#173741" fill-opacity="0.250"/>
<polygon points="1286.722,1142.518 -438.736,1101.723 -459.479,1104.429 1287.009,1146.807" fill="#f4e8d4" fill-opacity="0.250"/>
<polyline points="1287.340,1151.740 -475.808,1107.696" fill="none" stroke="#3f6b74" stroke-width="1.6"/>
<polyline points="1287.104,1148.220 -424.102,1106.347" fill="none" stroke="#173741" stroke-width="1.6"/>
<polygon points="1287.340,1151.740 -475.808,1107.696 -562.609,1119.819 1288.650,1171.312" fill="#173741"/>
<polygon points="1287.023,1147.010 -453.196,1104.731 -475.808,1107.696 1287.340,1151.740" fill="#f4e8d4"/>
<polyline points="5094.998,1370.748 1911.510,1254.314" fill="none" stroke="#3f6b74" stroke-width="1.6" stroke-opacity="0.250"/>
<polyline points="4794.152,1346.379 1875.750,1243.392" fill="none" stroke="#173741" stroke-width="1.6" stroke-opacity="0.250"/>
<polygon points="5094.998,1370.748 1911.510,1254.314 1978.331,1294.835 5686.815,1449.094" fill="#173741" fill-opacity="0.250"/>
<polygon points="4958.185,1353.160 1895.199,1244.783 1911.510,1254.314 5094.998,1370.748" fill="#f4e8d4" fill-opacity="0.250"/>
<polyline points="1911.510,1254.314 1909.837,1245.489" fill="none" stroke="#c9a98e" stroke-width="1.6" stroke-opacity="0.250"/>
<polyline points="6832.940,1458.416 1919.962,1269.203" fill="none" stroke="#3f6b74" stroke-width="1.6"/>
<polyline points="6272.512,1418.382 1879.341,1256.013" fill="none" stroke="#173741" stroke-width="1.6"/>
<polygon points="6832.940,1458.416 1919.962,1269.203 1997.442,1317.348 8018.253,1584.999" fill="#173741"/>
<polygon points="6574.956,1431.546 1901.364,1258.051 1919.962,1269.203 6832.940,1458.416" fill="#f4e8d4"/>
<polyline points="1919.962,1269.203 1918.057,1259.211" fill="none" stroke="#c9a98e" stroke-width="1.6"/>
<polyline points="1289.432,1182.990 96.871,1147.797" fill="none" stroke="#3f6b74" stroke-width="1.6" stroke-opacity="0.250"/>
<polyline points="1289.085,1177.803 139.121,1144.731" fill="none" stroke="#173741" stroke-width="1.6" stroke-opacity="0.250"/>
<polygon points="1289.432,1182.990 96.871,1147.797 24.959,1165.214 1291.038,1206.972" fill="#173741" fill-opacity="0.250"/>
<polygon points="1289.045,1177.213 115.351,1143.558 96.871,1147.797 1289.432,1182.990" fill="#f4e8d4" fill-opacity="0.250"/>
<polyline points="1289.432,1182.990 1288.999,1176.519" fill="none" stroke="#c9a98e" stroke-width="1.6" stroke-opacity="0.250"/>
<polyline points="840.086,1169.728 840.229,1163.694" fill="none" stroke="#c9a98e" stroke-width="1.6" stroke-opacity="0.250"/>
<polyline points="445.737,1158.090 446.323,1152.438" fill="none" stroke="#c9a98e" stroke-width="1.6" stroke-opacity="0.250"/>
<polyline points="96.871,1147.797 97.799,1142.481" fill="none" stroke="#c9a98e" stroke-width="1.6" stroke-opacity="0.250"/>
<polyline points="1292.693,1231.686 -705.452,1158.645" fill="none" stroke="#3f6b74" stroke-width="1.6" stroke-opacity="0.250"/>
<polyline points="1292.098,1222.800 -630.489,1154.993" fill="none" stroke="#173741" stroke-width="1.6" stroke-opacity="0.250"/>
<polygon points="1292.693,1231.686 -705.452,1158.645 -834.374,1177.885 1295.019,1266.417" fill="#173741" fill-opacity="0.250"/>
<polygon points="1292.142,1223.450 -672.486,1153.975 -705.452,1158.645 1292.693,1231.686" fill="#f4e8d4" fill-opacity="0.250"/>
<polyline points="1292.693,1231.686 1292.153,1223.623" fill="none" stroke="#c9a98e" stroke-width="1.6" stroke-opacity="0.250"/>
<polyline points="467.197,1201.505 467.891,1194.448" fill="none" stroke="#c9a98e" stroke-width="1.6" stroke-opacity="0.250"/>
<polyline points="-181.806,1177.782 -180.364,1171.508" fill="none" stroke="#c9a98e" stroke-width="1.6" stroke-opacity="0.250"/>
<polyline points="1293.590,1245.085 -1051.555,1154.818" fill="none" stroke="#3f6b74" stroke-width="1.6"/>
<polyline points="1292.871,1234.343 -959.461,1151.148" fill="none" stroke="#173741" stroke-width="1.6"/>
<polygon points="1293.590,1245.085 -1051.555,1154.818 -1210.888,1174.785 1296.343,1286.188" fill="#173741"/>
<polygon points="1292.947,1235.471 -1010.977,1149.994 -1051.555,1154.818 1293.590,1245.085" fill="#f4e8d4"/>
<polyline points="1293.590,1245.085 1292.980,1235.967" fill="none" stroke="#c9a98e" stroke-width="1.6"/>
<polyline points="282.751,1206.170 283.796,1198.446" fill="none" stroke="#c9a98e" stroke-width="1.6"/>
<polyline points="1308.203,1463.314 -1754.372,1248.986" fill="none" stroke="#3f6b74" stroke-width="1.6" stroke-opacity="0.250"/>
<polyline points="1305.672,1425.505 -1588.228,1238.743" fill="none" stroke="#173741" stroke-width="1.6" stroke-opacity="0.250"/>
<polygon points="1308.203,1463.314 -1754.372,1248.986 -2055.295,1287.304 1315.993,1579.647" fill="#173741" fill-opacity="0.250"/>
<polygon points="1306.518,1438.137 -1680.422,1239.935 -1754.372,1248.986 1308.203,1463.314" fill="#f4e8d4" fill-opacity="0.250"/>
<polyline points="1313.081,1536.162 -2208.413,1252.805" fill="none" stroke="#3f6b74" stroke-width="1.6"/>
<polyline points="1309.384,1480.940 -1996.413,1241.203" fill="none" stroke="#173741" stroke-width="1.6"/>
<polygon points="1313.081,1536.162 -2208.413,1252.805 -2599.633,1296.545 1324.761,1710.579" fill="#173741"/>
<polygon points="1310.706,1500.686 -2113.669,1242.618 -2208.413,1252.805 1313.081,1536.162" fill="#f4e8d4"/>
<polyline points="1297.548,1304.190 -163.426,1235.467" fill="none" stroke="#3f6b74" stroke-width="1.6" stroke-opacity="0.250"/>
<polyline points="1296.458,1287.911 -85.825,1226.140" fill="none" stroke="#173741" stroke-width="1.6" stroke-opacity="0.250"/>
<polygon points="1297.548,1304.190 -163.426,1235.467 -302.878,1271.641 1301.287,1360.032" fill="#173741" fill-opacity="0.250"/>
<polygon points="1296.687,1291.330 -129.061,1226.913 -163.426,1235.467 1297.548,1304.190" fill="#f4e8d4" fill-opacity="0.250"/>
<polyline points="1297.548,1304.190 1296.834,1293.525" fill="none" stroke="#c9a98e" stroke-width="1.6" stroke-opacity="0.250"/>
<polyline points="730.534,1277.516 730.971,1267.777" fill="none" stroke="#c9a98e" stroke-width="1.6" stroke-opacity="0.250"/>
<polyline points="249.618,1254.894 250.878,1245.934" fill="none" stroke="#c9a98e" stroke-width="1.6" stroke-opacity="0.250"/>
<polyline points="-163.426,1235.467 -161.572,1227.170" fill="none" stroke="#c9a98e" stroke-width="1.6" stroke-opacity="0.250"/>
</svg>
